# xmcd CD database file
#
# Track frame offsets:
#	150
#	24336
#	48546
#	69234
#	89013
#	113393
#	132406
#	154029
#	170421
#	201937
#	221141
#
# Disc length: 3270 seconds
#
# Revision: 0
# Processed by: cddbd v1.5.2PL0 Copyright (c) Steve Scherf et al.
# Submitted via: CDex 1.50
#
DISCID=960cc40b
DTITLE=Olivia Latuputty - Olive - You
DYEAR=2005
DGENRE=Jazz
TTITLE0=Nikita
TTITLE1=You
TTITLE2=Let's fall in Love
TTITLE3=Saving All My Love For You
TTITLE4=In the Name of Love
TTITLE5=It might be You
TTITLE6=How deep is Your Love
TTITLE7=Moody's Mood
TTITLE8=Just the Two of Us
TTITLE9=If We Hold on Together
TTITLE10=That's All
EXTD=YEAR: 2005
EXTT0=
EXTT1=
EXTT2=
EXTT3=
EXTT4=
EXTT5=
EXTT6=
EXTT7=
EXTT8=
EXTT9=
EXTT10=
PLAYORDER=
